<svg height="1024" viewBox="0 0 1920 1024" width="1920" xmlns="http://www.w3.org/2000/svg" xmlns:xlink="http://www.w3.org/1999/xlink"><defs><path id="a" d="m-10 50h1920v1024h-1920z"/><linearGradient id="b"><stop offset="0" stop-color="#e5af83"/><stop offset="1" stop-color="#ce5d73"/></linearGradient><linearGradient id="c" x1="50%" x2="50%" xlink:href="#b" y1="6.361568%" y2="93.638962%"/><linearGradient id="d" x1="97.722094%" x2="14.225487%" xlink:href="#b" y1="-34.786063%" y2="101.046418%"/><linearGradient id="e" x1="174.676065%" x2="32.594664%" xlink:href="#b" y1="-116.963587%" y2="90.225095%"/><linearGradient id="f"><stop offset="0" stop-color="#71dbe5"/><stop offset="1" stop-color="#171c37"/></linearGradient><linearGradient id="g" x1="42.157933%" x2="67.916816%" xlink:href="#f" y1="4.537453%" y2="105.121156%"/><linearGradient id="h" x1="41.451374%" x2="69.531097%" xlink:href="#f" y1="4.537453%" y2="105.121156%"/><linearGradient id="i" x1="42.210691%" x2="67.79628%" xlink:href="#f" y1="4.537453%" y2="105.121156%"/><linearGradient id="j" x1="42.131027%" x2="67.978289%" xlink:href="#f" y1="4.537453%" y2="105.121156%"/><linearGradient id="k" x1="46.328857%" x2="68.338697%" xlink:href="#f" y1="-28.072991%" y2="105.121156%"/><linearGradient id="l" x1="52.26976%" x2="64.218594%" xlink:href="#f" y1="-124.122896%" y2="105.121156%"/><mask id="m" fill="#fff"><use fill="#fff" fill-rule="evenodd" xlink:href="#a"/></mask></defs><g fill="none" fill-rule="evenodd" transform="translate(10 -50)"><use fill="#f6f6f6" xlink:href="#a"/><g mask="url(#m)"><g stroke="#babfd3" transform="translate(553 -107)"><path d="m.9658 137.7015c33 123 201 272 285.985 374.004 54.409 65.306 96.657 143.205 105.692 227.724 8.254 77.211-10.086 155.039-36.9 227.913-26.815 72.875-62.106 142.371-89.722 214.946" opacity=".403533" stroke-width="4"/><path d="m965 1202c16-146.5 131-327 0-417s-183.503-106.003-237.5-167.5c-51.235-58.35-84.3218-189.085-96.8618-265.717-13.499-82.496-28.671-145.958-32.998-223.489" opacity=".403533" stroke-width="4"/><g fill-rule="evenodd"><g opacity=".5" transform="translate(693 106)"><path d="m277.7962 326.9604c8.999-27.207 36.214-47.317 64.863-47.931 26.061-.558 50.308 13.41 70.36 30.065 19.879 16.512 37.195 36.103 51.142 57.859 7.85 12.246 14.839 26.025 14.016 40.547-.912 16.077-11.196 30.01-22.144 41.817-21.351 23.026-34.865 40.487-64.975 49.399-24.181 7.158-50.408 7.25-74.639.265-28.403-8.189-57.211-28.616-68.604-55.893-11.393-27.276-10.662-46.852 7.129-73.435 0 0 20.228-34.761 22.852-42.693z"/><path d="m254.9271 306.4544c12.198-26.258 41.691-48.396 70.788-58.241 16.94-5.731 36.507-2.328 53.798 4.949 17.303 7.283 32.54 19.312 46.049 32.212 21.591 20.618 40.512 43.983 56.358 69.431 8.682 13.907 16.718 29.311 16.317 45.632-.042 1.705-.174 3.397-.393 5.075-2.097 16.1-12.24 30.28-22.577 42.955-10.372 12.716-19.353 24.84-30 34.775-14.663 13.681-31.886 23.082-53.973 28.007-19.445 4.336-39.581 4.648-59.435 2.532-13.327-1.421-26.59-4.352-38.856-9.3-29.927-12.074-60.4-33.962-72.869-64.138-11.892-28.778-13.647-54.436 1.914-82.713.803-1.46 1.633-2.918 2.517-4.364 2.435-5.462 25.716-36.811 30.362-46.812z"/><path d="m232.058 285.9483c14.512-25.541 45.313-57.7 76.712-68.551 22.071-7.627 47.423-7.725 70.185 1.331 22.773 9.061 42.252 25.339 59.15 42.926 23.509 24.468 43.829 51.863 61.573 81.002 9.516 15.569 18.599 32.598 18.619 50.718.002 1.895-.093 3.782-.284 5.661-1.84 18.004-12.692 33.989-23.512 48.582-11.713 15.798-22.127 31.292-35.395 43.665-18.272 17.042-40.863 27.754-67.576 32.5-24.436 4.342-49.492 3.261-74.131-.193-16.539-2.318-33.031-6.369-47.813-13.608-31.563-15.458-63.588-39.308-77.133-72.383-12.914-31.533-16.675-63.898-.955-95.615.856-1.727 1.739-3.435 2.689-5.105 4.87-10.922 31.014-38.862 37.871-50.93z"/><path d="m209.1888 265.4423c16.407-25.019 49.723-64.09 82.636-78.86 26.538-11.91 58.338-13.123 86.572-2.288 28.242 10.838 52.037 31.296 72.251 53.64 25.528 28.217 47.146 59.743 66.789 92.573 10.348 17.231 20.478 35.884 20.92 55.804.047 2.085-.011 4.167-.176 6.247-1.581 19.908-13.105 37.729-24.446 54.209-13.015 18.911-24.902 37.743-40.789 52.556-21.882 20.402-49.848 32.394-81.179 36.992-29.434 4.319-59.403 1.873-88.828-2.918-19.752-3.216-39.516-8.282-56.769-17.916-33.305-18.599-66.777-44.653-81.399-80.629-13.936-34.288-19.762-73.391-3.823-108.515.907-1.998 1.845-3.952 2.86-5.846 7.305-16.384 36.156-40.982 45.381-55.049z"/><path d="m186.3197 244.9362c18.094-24.648 53.966-70.726 88.561-89.17 30.848-16.448 69.253-18.52 102.958-5.907 33.712 12.617 61.876 37.209 85.352 64.354 27.607 31.922 50.462 67.623 72.005 104.145 11.18 18.894 22.357 39.171 23.221 60.89.091 2.275.07 4.553-.068 6.833-1.322 21.813-13.491 41.486-25.379 59.835-14.285 22.047-27.678 44.195-46.185 61.447-25.491 23.763-58.832 37.017-94.782 41.485-34.433 4.279-69.313.485-103.524-5.643-22.964-4.114-46.05-10.12-65.725-22.224-35.131-21.613-69.966-49.999-85.664-88.874-14.958-37.043-22.891-82.903-6.692-121.416.955-2.269 1.95-4.469 3.031-6.588 9.741-21.845 41.167-43.196 52.891-59.167z"/><path d="m140.5815 203.9241c21.207-24.234 62.07-84.269 100.409-109.79 39.047-25.992 91.084-29.314 135.732-13.144 44.651 16.173 81.671 48.951 111.554 85.783 31.861 39.269 57.096 83.383 82.437 127.288 12.845 22.217 26.115 45.744 27.824 71.061.179 2.655.232 5.323.148 8.005-.806 25.621-14.213 49.024-27.248 71.089-16.75 28.352-33.227 57.097-56.975 79.229-32.709 30.482-76.809 46.156-121.988 50.469-44.437 4.093-89.134-2.29-132.917-11.093-29.389-5.909-59.244-13.646-83.636-30.84-38.961-27.463-76.344-60.69-94.194-105.365-17.003-42.553-29.234-101.95-12.429-147.218 1.044-2.813 2.161-5.503 3.373-8.069 14.611-32.768 50.872-47.936 67.91-67.405z"/><path d="m207.101 32.5024c46.82-35.88 112.914-40.109 168.505-20.381 55.59 19.728 101.57 60.627 137.757 107.211 36.186 46.584 63.729 99.143 92.867 150.431 16.034 28.222 33.11 57.951 32.792 90.409-.289 29.43-14.893 56.576-29.116 82.343-19.148 34.686-38.777 70-67.765 97.01-39.928 37.204-94.769 55.425-149.195 59.454-54.425 4.03-108.955-5.065-162.309-16.543-35.813-7.704-72.569-17.046-101.548-39.455-42.95-33.212-82.722-71.382-102.725-121.856-19.047-48.063-35.647-121.011-18.165-173.02 17.481-52.01 62.417-61.061 86.644-85.193s69.838-97.902 112.258-130.41z"/></g><g opacity=".5" transform="translate(394 745)"><path d="m1.72138109 323.261449c13.77861891-78.761449 35.06649001-184.416573 69.16091691-267.3361389 9.9213988-24.1299789 35.629796-48.76305128 57.971359-54.96001887 22.646325-6.28109694 49.478444 19.53988177 68.26685 35.54801367 11.521764 9.816212 23.104192 21.6094637 26.694903 37.7034075 4.061577 18.2005426-3.072181 36.9782126-10.031171 53.9471016-30.301503 73.885756-60.601562 147.771513-90.903065 221.658952-4.939756 12.047322-10.292603 24.666724-19.787912 32.14414-15.986321 12.589115-42.7181589 19.714204-60.593262 13.533094-53.5-18.5-41.02632087-70.822635-40.77861891-72.238551z"/><path d="m93.7088982 78.6961809c5.6532795-15.8806295 19.5560848-31.9054151 33.0888208-37.9080048 14.807099-6.5674801 33.748322 6.2674345 47.027625 17.229997 8.286964 6.840706 14.978454 16.4572536 18.432916 27.2823651 1.025251 3.2049571 1.78267 6.5155169 2.236257 9.9400605 2.242016 16.9869433-3.340705 34.3426573-9.52389 50.1495333-19.099618 48.828661-40.50893 96.45714-62.079517 143.607892-3.154951 6.89267-28.9595638 81.001976-60.4595638 66.001976s-15.0634123-77.174067-12.396608-85.922326c.2145539-.834764.4708666-1.641032.7588585-2.422157 4.4811527-12.228118 8.4237608-25.272562 11.6377495-35.289729 11.4951937-35.831152 14.4816689-105.487006 31.277352-152.6696071z"/><path d="m98.5382175 189.363044c.9287695-4.110576 11.0188415-58.535332 17.0018785-87.670969 1.573511-7.6610761 3.388446-15.7745848 8.268036-21.1364972 6.764112-7.4323372 17.983193-7.0572725 25.63915-.9570038 7.654538 6.1002686 12.051282 16.7315887 13.685859 27.485688 2.885718 18.978613-1.847598 38.426478-8.086259 56.239532-8.358925 23.869593-14.998777 50.919345-28.546882 71.176206-2.161448 3.230939-27.9617825 80.5-43 66.5-26.6025671-24.765963 14.109448-107.526381 15.0382175-111.636956z"/></g><g opacity=".5" transform="translate(116)"><path d="m310.967 358.7014c8.979 23.553 34.619 77.423 41.588 92.599 6.968 15.176 13.265 27.325 19.555 38.772 12.581 22.893 38.245 68.647 54.982 81.004 13.375 9.875 23.875-5.75 22-18.5-1.838-12.496-5.754-22.961-22.542-54.392-8.395-15.716-20.004-33.215-35.908-51.012-3.976-4.45-20.698-24.454-38.025-44.402-17.326-19.948-35.257-39.841-41.65-44.069z"/><path d="m224.0291 246.9458c1.633 4.283-15.201 39.576-12.394 45.933 23.46 50.174 50.145 97.561 70.18 131.348 12.982 21.891 24.972 42.074 37.685 61.982 14.427 22.474 31.763 49.802 49.98 77.321 9.951 15.115 35.558 32.925 47.045 42.135 2.239 1.786 4.534 3.361 6.833 4.758 18.529 11.264 37.19 1.389 50.729-16.918 15.023-20.314-13.503-85.96-36.54-127.296-17.256-30.963-40.76-60.432-66.936-89.992-17.004-19.273-42.504-48.916-68.408-78.522-7.911-9.034-15.849-18.065-23.674-26.914-8.385-9.478-17.158-18.724-27.171-24.078-11.643-6.225-24.365-6.034-27.329.243z"/><path d="m141.0004 138.1844c.816 2.141-36.54 64.049-35.136 67.227 35.692 74.926 73.358 138.643 109.121 194.736 18.437 28.918 36.678 56.823 55.813 85.193 22.192 32.822 46.53 68.939 72.231 107.385 11.864 17.808 54.82 42.095 70.681 53.783 3.154 2.317 6.441 4.401 9.822 6.256 23.521 12.902 51.09 8.87 79.459-15.336 32.514-27.744-21.465-148.842-50.539-200.201-26.275-46.121-61.514-87.65-97.963-128.971-30.031-34.098-64.31-73.38-98.791-112.643-11.338-12.906-22.69-25.809-33.986-38.622-11.722-13.294-24.258-26.802-40.212-32.699-16.774-6.198-37.393-.527-40.5 13.892z"/><path d="m.1635 118.2958c47.924 99.677 96.297 179.923 148.062 258.123 51.766 78.201 106.925 154.356 168.422 245.852 13.779 20.501 74.082 51.265 94.318 65.431 30 21 71 29 121-6s-29.32-211.781-64.536-273.105c-35.217-61.324-82.271-114.867-128.992-167.951-57.824-65.698-115.647-131.396-173.471-197.093-15.06-17.111-31.347-35.023-53.254-41.319-21.908-6.296-50.42 4.978-53.67 27.54z"/></g></g></g></g><g mask="url(#m)" opacity=".958016"><g transform="translate(25 220)"><g fill="url(#c)"><path d="m221.109759 71.0795618c55.053795-59.5714794 143.648143-80.77711604 223.617595-67.06835754 79.97036 13.70785164 151.873821 58.34724024 211.836166 112.98095474 59.961438 54.633715 109.606754 119.3869 161.117501 182.044369 28.344385 34.478203 58.454396 70.754678 65.627594 114.799177 6.503602 39.937403-6.930946 80.13235-20.172238 118.368514-17.825932 51.475178-36.158144 103.91161-69.120739 147.290485-45.401824 59.750128-133.691257 112.873041-206.515638 131.076118-72.825288 18.203983-144.494444 23.483428-219.5 20.429178-50.347575-2.050374-88.500265-26.529517-133.030163-50.100202-65.995054-34.935253-128.84537-77.33111-167.7826057-141.025101-37.0772493-60.651531-76.66865634-155.5872-65.15851357-230.138833 11.51014277-74.55254 37.97457947-131.870928 65.15851357-170.235864 27.1830267-38.364936 104.0422187-114.447813 153.9225277-168.4204382z" opacity=".05"/><path d="m248.880329 147.750277c47.029309-50.914281 122.709627-69.0384213 191.022466-57.3221446 68.313746 11.7162766 129.736651 49.8683956 180.958569 96.5628196 51.22101 46.694423 93.630097 102.037375 137.63252 155.589974 24.213271 29.467276 49.933631 60.471603 56.060941 98.116213 5.556251 34.133813-5.919405 68.487334-17.231642 101.16762-15.227034 43.993461-30.887128 88.810376-59.045156 125.884833-38.783905 51.067714-95.067986 101.191955-157.278027 116.750408-62.209133 15.557545-112.926981 23.611082-177 21-43.00829-1.752221-105.240513-30.934825-143.279045-51.080829-56.376885-29.858575-110.065525-66.093237-143.32677-120.531026-31.6724479-51.837601-65.4929498-132.977243-55.6614719-196.695448 9.8323858-63.718206 27.045425-131.902557 50.2672869-164.692697 23.220954-32.789233 94.2706-78.620913 136.880329-124.749723z" opacity=".1"/><path d="m368.660402 181.511278c53.34982-24.450155 118.412725-13.970481 167.994059 17.414126s85.162709 81.170089 109.987875 134.304895c24.824257 53.134807 39.942688 110.155844 56.890436 166.295338 9.325438 30.893046 19.32904 63.475719 11.852893 94.865768-6.77801 28.462451-26.941364 51.554012-46.431093 73.391277-26.237781 29.398412-53.080189 59.297454-87.169967 79.083224-46.954923 27.254409-104.189435 32.818477-157.886054 24.718609-53.696619-8.098961-104.596152-28.943128-153.828872-51.836977-33.047565-15.367166-66.647103-32.53007-89.817257-60.64335-34.339436-41.665662-64.500946-87.437035-72.763291-140.772274-7.8683381-50.788557-7.8683381-125.157514 20.578242-171.714295 28.445672-46.555875 70.097487-66.571357 98.932627-84.617619 28.83514-18.047169 93.32373-58.335842 141.660402-80.488722z" opacity=".15"/><path d="m266.025219 332.83822c25.937797-18.80395 78.86329-67.961476 121.714829-84.235206 43.641689-16.573803 94.886071-8.318632 134.651486 17.192986 39.769047 25.514337 68.462377 65.435789 89.332317 107.710681 22.25134 45.072549 37.001708 93.377905 51.900115 141.503761 7.560915 24.358468 15.245347 50.079501 11.310947 74.984627-.412331 2.612718-.950904 5.209117-1.624802 7.789198-6.441082 24.646756-24.624514 44.365429-42.151304 62.869307-22.52108 23.77736-44.86415 47.995311-72.803659 64.201049-38.483011 22.322325-84.750358 27.78528-129.557291 22.002308-44.036764-5.832833-86.011873-21.87267-126.565621-40.054717-27.221108-12.205071-54.491261-26.284917-74.369427-48.321674-31.751299-35.198254-60.698022-75.635541-68.156308-122.85574-7.104081-44.977359-5.855281-105.223976 20.455793-145.378415 1.634792-2.494864 3.312271-4.85465 5.056958-7.073919 21.42032-28.526849 59.966906-35.227263 80.805967-50.334246z" opacity=".25"/><path d="m301.148127 382.978709c23.016287-19.900639 68.030376-56.654375 105.697024-66.901739 33.589078-9.138095 71.338405-2.67567 101.278748 16.986426 29.947611 19.666631 51.86001 49.718492 68.657275 81.211587 19.752776 37.033094 34.056981 76.682902 46.90478 116.837913 6.681474 20.780436 13.053132 42.902335 9.092765 64.146252-.414299 2.225795-.938532 4.428915-1.576334 6.608453-6.103636 20.852996-22.266733 37.238983-37.865621 52.40414-18.741561 18.219048-36.640896 36.734688-58.424281 49.375643-30.002124 17.410905-65.305635 22.904647-101.201521 19.304736-34.379516-3.447533-67.410744-14.819586-99.275395-28.307687-21.389075-9.052836-42.479236-19.967757-58.908538-36.041734-29.336158-28.700421-56.888832-63.90136-63.541232-105.04773-6.338951-39.208096-3.908581-85.411937 20.331522-119.172549 1.42824-1.989066 2.881011-3.901944 4.399197-5.716865 14.285125-19.027191 49.518678-32.791928 64.431611-45.686846z" opacity=".3"/><path d="m319.117916 408.372705c21.434459-20.647918 62.369557-51.192749 97.550383-58.255101 28.366628-5.694537 59.47654.148853 84.467377 16.891193 24.999004 16.748693 43.56041 41.845865 58.234212 67.982285 18.53146 33.007261 32.538271 68.360772 44.344466 104.543867 6.232509 18.999642 11.939592 39.329885 7.97213 58.749765-.414714 2.033115-.931065 4.039909-1.54996 6.021288-5.926691 18.962429-21.036987 33.705236-35.672675 47.18733-16.796376 15.472551-32.482008 31.115738-51.160478 41.977473-25.724073 14.959734-55.493651 20.4201-86.895769 17.963117-29.500059-2.307223-58.025494-11.296496-85.506431-22.4396-18.446157-7.479867-36.497565-16.756862-51.103307-29.910391-28.196024-25.39397-54.90924-58.057235-61.149009-96.181773-5.94847-36.337394-2.968337-75.554732 20.242043-106.108639 1.32037-1.737224 2.661611-3.425436 4.063654-5.039221 10.701802-14.279911 44.112153-31.772869 56.163364-43.381593z" opacity=".4"/><path d="m336.321498 433.116951c19.738719-21.555285 56.760745-45.931041 89.65437-49.522379 23.121955-2.523913 47.765139 2.97283 67.870989 16.771369 20.114029 13.804887 35.435368 33.879198 47.959609 54.652733 17.424161 28.900298 31.104318 59.935447 41.897411 92.092436 5.80048 17.189451 10.858522 35.69754 6.872792 53.26517-.416202 1.837387-.926005 3.645753-1.526681 5.424191-5.765949 17.044347-19.83959 30.14457-33.572453 41.901668-14.867879 12.728393-28.406272 25.44953-44.026586 34.515846-21.513487 12.487156-45.821346 17.88686-72.81362 16.595429-24.693165-1.182602-48.788379-7.756747-71.954862-16.539201-15.55125-5.894874-30.671758-13.45845-43.428636-23.735482-27.238542-21.944347-53.070357-52.125193-58.915366-87.171577-5.572387-33.411236-2.071925-65.609943 20.205812-92.884163 1.213166-1.485508 2.448142-2.945623 3.739461-4.355858 7.144505-9.511605 38.711372-30.825654 48.03776-41.010182z" opacity=".66"/></g><path d="m354.312095 458.153266c17.618494-22.787297 51.093907-37.756073 81.474313-40.884026 17.687435-1.821386 35.906426 5.80283 51.063067 16.683022 15.168433 10.888363 27.2854 25.925237 37.535567 41.426991 16.383032 24.775749 29.571278 51.627115 39.318915 79.820458 5.349136 15.412773 9.741287 32.134838 5.750978 47.884467-.416356 1.64524-.917979 3.257793-1.499427 4.837659-5.585887 15.160357-18.546452 26.680667-31.364603 36.697381-12.859878 10.0494-24.242099 19.830949-36.755466 27.120124-17.233887 10.037597-36.004392 15.357387-58.503055 15.259326-19.808221-.087165-39.397832-4.230227-58.179222-10.668635-12.605891-4.321024-24.817197-10.094799-35.617063-17.605518-26.349279-18.325537-51.062159-46.294613-56.492933-78.330481-5.179509-30.551339-1.220042-55.837367 20.103933-79.841342 1.100306-1.238469 2.226917-2.470583 3.402512-3.67909 3.565788-4.761389 33.051799-30.041061 39.762484-38.720336z" fill="url(#d)" opacity=".515851"/><path d="m372.546694 482.431202c14.748245-24.365249 45.616539-37.84461 73.568615-32.123924 25.426506 5.20326 45.881815 24.074366 61.671177 44.623709 15.653091 20.373545 28.137407 43.162954 36.871522 67.307095 4.915779 13.589009 8.657804 28.474754 4.648686 42.357364-4.43701 15.368737-17.500936 26.596252-30.740198 35.618136-25.817151 17.594304-42.796621 31.525847-74.000143 33.521246-25.05948 1.602118-50.545037-4.087758-72.528408-16.194263-25.768093-14.19071-49.225017-40.323-54.259806-69.249936-5.03479-28.927842 0-47.725548 23.147132-69.548973 0 0 27.321592-29.206038 31.621423-36.310454z" fill="url(#e)" opacity=".4"/></g></g><g mask="url(#m)" opacity=".85"><g transform="translate(1097 620)"><path d="m428.5 264.871072c18.926646-159.959892-74.103-208.613072-99-233.871072-18.778-19.057-90.0486-34.9979-116.2126-29.4329-101.858 21.673-99.7954 73.1889-128.2874 135.4329s-156.9706 324.6531-29.2606 374.6831c31.862 12.493 65.803 15.921 99.885 16.465 33.802.539 142.670503 45.340138 164.3756 15.8519 99-134.5 106-258 108.5-279.128928z" fill="url(#g)" opacity=".15"/><path d="m407.5 290.511543c-2.57001 32.626935-1 101.488457-90.8127 200.473522-21.558952 23.760718-98.463768 16.345-129.748665 14.436-30.93491-1.888-60.413917-7.314-87.3684096-19.579-107.4427479-46.77 10.8203066-281.9177 28.8089846-308.5177 25.388876-48.255 30.778787-86.4523002 117.102721-103.3213002 24.038299-4.788 63.9094 8.28 81.424115 24.013 23.44365 21.0080002 90.514223 66.5551012 80.593954 192.4954782z" fill="url(#h)" opacity=".25"/><path d="m389 325.5c-3.5 21-15 103.5-93 165.5-23.5 17.320567-64.346519-12.710624-90.730429-14.320567-26.08875-1.592232-50.949675-6.168213-73.681567-16.511819-90.6111283-39.443169 9.125233-237.75342 24.295866-260.186354 21.41154-40.695534 25.957085-72.908973 98.757802-87.135332 20.272539-4.037928 53.897567 6.982883 68.668486 20.251204 19.771046 17.716957 83.60295 84.92422 65.689842 192.402868z" fill="url(#i)" opacity=".25"/><path d="m377 337c-6.5 37.5-30 99-66.531224 131.924184-18.3727 16.558605-71.481433 13.571533-95.457481 10.378683-23.005246-3.063981-43.440598-10.24693-61.262725-21.822932-70.3084215-41.845559 8.002574-190.275928 27.604335-226.339737s27.007203-63.611366 84.268073-75.214296c18.217258-3.857385 46.796625 4.840244 60.362075 16.774961 18.402959 16.116195 65.676179 79.726644 51.016947 164.299137z" fill="url(#j)" opacity=".5"/><path d="m358 356c-7.77842 35.002891-23 71.270324-56.18255 89.929324-3.804802 2.139492-8.307987 4.40224-13.484081 5.904496-18.475949 5.362267-44.01745 5.004554-59.316563 1.242504-17.875085-4.397-31.769694-13.997-42.649517-25.806-41.82007-40.252 1.913506-138.6881 26.437251-168.6881 24.523744-30 29.758092-39.3369 64.991629-46.5979 14.609612-3.234 35.387219 1.787 46.651792 10.873 15.594922 12.509 48.552039 65.642676 33.552039 133.142676z" fill="url(#k)" opacity=".735224"/><path d="m326.5 373.5c-4.582 18.509-17.536383 38.939088-35.175383 46.183088-13.132 5.393-28.438 10.004-41.058 3.503-10.568-5.445-16.19-17.339-18.879-28.919-8.589-36.993 6.66-77.509 35.06-102.722 7.084-6.29 15.121-11.831 24.27-14.288 9.15-2.457 19.478787-1.188544 27.095 4.303 24.187383 17.439912 13.969383 70.600912 8.687383 91.939912z" fill="url(#l)" opacity=".735224"/></g></g><path d="m778.854975 1309.72541c-80.223-98.906-280.468-183.06-399.622-241.622-76.285-37.493-122.994-50.998-176.991-112.494998-21.93158-24.977216-42.02807-66.198869-58.825482-111.191767-22.44351-60.116318-38.997373-126.965215-46.1695185-170.794233-13.499-82.496-28.671-145.958-32.998-223.489" mask="url(#m)" opacity=".403533" stroke="#babfd3" stroke-width="2" transform="matrix(.89879405 -.43837115 .43837115 .89879405 -343.072096 273.850318)"/></g></svg>